<svg xmlns="http://www.w3.org/2000/svg" viewBox="5 2 199 146" width="100%" height="100%" role="img" aria-label="orca"><g
     transform="matrix(0.98491417,0,0,0.98491417,1.5840122,-71.259754)"><g
       transform="matrix(1.332168,0,0,1.332168,1.1170662,71.726825)"><path
         d="m 30.996609,70.96271 c 1.652155,0.04457 3.308243,-0.05765 4.942373,-0.305085 0.73395,-0.111131 1.463205,-0.251433 2.19661,-0.366102 0.688126,-0.10759 1.379994,-0.192606 2.074576,-0.244067 0.759282,-0.05625 1.532103,-0.07425 2.257628,-0.305085 0.1802,-0.05733 0.356289,-0.127499 0.538213,-0.179101 0.181924,-0.0516 0.372006,-0.08453 0.560092,-0.06497 0.129104,0.01343 0.256679,0.05221 0.366101,0.122034 0.197904,0.126279 0.319894,0.340311 0.427119,0.549153 0.158,0.307737 0.301624,0.623913 0.488136,0.915254 0.234786,0.366748 0.53344,0.687798 0.79322,1.037288 0.242244,0.325898 0.456287,0.693487 0.488135,1.098305 0.0258,0.327948 -0.06988,0.65147 -0.122033,0.976271 -0.130106,0.810339 0.01114,1.638166 0.18305,2.440678 0.199158,0.929741 0.440843,1.857124 0.488136,2.80678 0.01379,0.276991 0.01076,0.556554 -0.04113,0.828991 -0.05189,0.272437 -0.154546,0.53866 -0.324975,0.757449 -0.177712,0.228139 -0.423536,0.397336 -0.688834,0.512426 -0.265299,0.11509 -0.550376,0.178415 -0.836589,0.219778 -1.744963,0.25218 -3.523583,-0.302378 -5.064407,-1.159322 -1.461729,-0.812954 -2.759108,-1.892956 -3.966102,-3.050848 -1.091883,-1.047464 -2.118046,-2.1646 -3.050847,-3.355932 -0.537004,-0.685838 -1.046414,-1.402056 -1.40339,-2.19661 -0.05598,-0.124596 -0.1085,-0.251648 -0.183051,-0.366102 -0.06499,-0.09978 -0.147391,-0.191466 -0.183051,-0.305084 -0.03844,-0.122487 -0.01507,-0.262705 0.06102,-0.366102 z"
         style="display:inline;opacity:1;fill:#2a2a2a;fill-opacity:1;fill-rule:evenodd;stroke:#080808;stroke-width:1;stroke-miterlimit:4;stroke-dasharray:none;stroke-opacity:1;paint-order:stroke fill markers" /><path
         d="m 62.388389,64.849201 c 1.484302,-0.145642 2.965958,-0.318262 4.443987,-0.517746 7.537862,-1.017357 15.005868,-2.735548 22.60824,-2.977039 3.051738,-0.09694 6.108323,0.04536 9.146846,0.345164 5.038578,0.497139 10.073308,1.439452 14.755758,3.365349 1.88487,0.77525 3.70529,1.707131 5.43633,2.782884"
         style="display:inline;opacity:1;fill:none;fill-opacity:1;fill-rule:evenodd;stroke:#b0b0b0;stroke-width:0.5;stroke-miterlimit:4;stroke-dasharray:none;stroke-opacity:1;paint-order:stroke fill markers" /><path
         d="m 93.035611,59.807294 c -9.55655,-1.253451 -7.21988,-0.03071 -10.973111,0.267703 -1.463639,0.400958 -3.367816,0.976057 -4.890538,1.045688 -3.595524,0.336254 -6.842717,0.800374 -10.451825,0.971655 -1.746813,-0.09071 -3.057065,-0.289416 -4.353897,0.107263 -0.560142,0.189993 -1.40822,0.337821 -1.946796,0.527944 -0.300765,0.503909 0.493409,1.015802 1.266731,1.170604 0.478406,0.271671 0.552142,0.902285 1.169603,0.716797 7.170068,-0.754186 14.572332,-2.413416 21.74139,-3.170034 4.517234,-0.484361 9.064143,-0.191258 13.584524,0.24448 2.554428,0.246232 6.530778,0.948992 9.045708,1.444732 4.00775,0.803645 6.46456,1.607443 10.06294,3.546241 0.81618,0.800251 0.94192,0.483968 0.75302,0.108287 -1.15357,-2.201694 -3.91903,-3.2959 -6.12071,-4.055581 -3.44,-1.118237 -6.98919,-1.450217 -10.49407,-2.306054 -2.066615,-0.378718 -2.503275,-0.642607 -4.6088,-0.605008 -0.626472,-0.0057 -2.885585,-0.228476 -3.613008,-0.01033 z"
         style="display:inline;opacity:1;fill:#b0b0b0;fill-opacity:1;fill-rule:evenodd;stroke:none;stroke-width:0.00883884;stroke-miterlimit:4;stroke-dasharray:none;stroke-opacity:1;paint-order:stroke fill markers" /><path
         d="m 82.0625,60.074997 c 0.333323,0.0032 0.666677,0.0032 1,0 2.711316,-0.02628 5.415742,-0.266165 8.125,-0.375 2.248791,-0.09034 4.501209,-0.09034 6.75,0"
         style="display:inline;opacity:1;fill:none;fill-opacity:1;fill-rule:evenodd;stroke:#b0b0b0;stroke-width:0.5;stroke-miterlimit:4;stroke-dasharray:none;stroke-opacity:1;paint-order:stroke fill markers" /><path
         d="m 87.514689,56.436613 c -1.170014,1.215429 -2.566293,2.23732 -3.817383,3.320313 2.937055,0.0194 5.891013,-0.305558 8.837814,-0.338384 1.217449,-0.09641 2.882012,0.294091 4.063108,0.0086 -0.473346,-1.255549 0.401842,-2.535366 1.5461,-2.716076 2.930552,-0.399049 5.889432,0.07136 8.813472,0.247071 0.1134,-0.24277 -0.57345,-0.25655 -0.73207,-0.356044 -4.79658,-1.273218 -9.76783,-1.605589 -14.709927,-1.711014 -0.797963,0.0331 -1.692658,-0.182997 -2.430888,0.004 l -1.570226,1.541579 z"
         style="display:inline;opacity:1;fill:#ebebeb;fill-opacity:1;fill-rule:evenodd;stroke:none;stroke-width:0.0125;stroke-miterlimit:4;stroke-dasharray:none;stroke-opacity:1;paint-order:stroke fill markers" /><path
         d="M 91.464405,30.020338 C 90.543082,29.89248 89.638327,29.645729 88.779659,29.288135 87.715192,28.844836 86.714383,28.224597 85.911862,27.396609 85.016463,26.472796 84.390061,25.313978 83.95932,24.101694 83.35648,22.405049 83.121891,20.593703 83.105083,18.79322 c -0.02443,-2.617023 0.401818,-5.213971 0.732203,-7.81017 0.354076,-2.7823727 0.633176,-5.6836538 2.086315,-8.0826859 0.06377,-0.1052806 0.130394,-0.2108995 0.165522,-0.3288686 0.01756,-0.058985 0.02697,-0.1207749 0.0233,-0.1822093 -0.0037,-0.061434 -0.02075,-0.1225458 -0.05325,-0.1748048 -0.03165,-0.050881 -0.07732,-0.092395 -0.129181,-0.1224178 -0.05186,-0.030023 -0.10978,-0.048812 -0.168864,-0.05879 -0.118169,-0.019957 -0.239233,-0.00513 -0.357701,0.012962 -0.801108,0.1223663 -1.575891,0.3933746 -2.298341,0.7605437 -1.324841,0.6733208 -2.463759,1.6588524 -3.538983,2.6847457 -1.889113,1.8024407 -3.628607,3.7622292 -5.186441,5.8576269 -1.781172,2.395803 -3.319828,4.960665 -4.881356,7.505085 -1.251734,2.039628 -2.520092,4.068996 -3.78305,6.101694 -0.43103,0.693731 -0.863093,1.390187 -1.381563,2.021248 -0.51847,0.631061 -1.129402,1.198731 -1.852336,1.578752 -1.256545,0.660521 -2.732346,0.704609 -4.149152,0.793221 -7.836522,0.490121 -15.46421,2.770675 -22.759322,5.674576 -6.702261,2.66791 -13.208565,5.884624 -19.177591,9.935399 -1.889545,1.282307 -3.737257,2.659312 -5.263751,4.357695 -2.0237347,2.251615 -3.4129724,4.986006 -4.8754409,7.636753 -0.7929238,1.437187 -1.613851,2.859241 -2.3730023,4.31455 -0.5348016,1.025226 -1.0418643,2.07487 -1.3375105,3.192767 -0.11629,0.439715 -0.1996213,0.892524 -0.1835128,1.347071 0.016109,0.454548 0.1368171,0.913311 0.3992403,1.284804 0.2195001,0.31073 0.5288554,0.548871 0.8602528,0.735711 0.3313974,0.18684 0.6869469,0.326109 1.0381491,0.472363 1.576459,0.6565 3.0903756,1.465601 4.7028592,2.027839 2.5241961,0.880132 5.2234661,1.1322 7.8956261,1.208074 2.387028,0.06778 4.775738,4.16e-4 7.162153,-0.08629 5.409294,-0.196538 10.881891,-0.503994 16.050125,-2.112859 0.548935,-0.170883 1.101957,-0.357791 1.676322,-0.382983 0.287182,-0.0126 0.57802,0.0163 0.851068,0.106174 0.273048,0.08988 0.528004,0.242426 0.720935,0.455523 0.05666,0.06258 0.107741,0.129983 0.157327,0.198305 0.09125,0.125725 0.177694,0.254882 0.26149,0.385692 0.210861,0.329163 0.404918,0.668721 0.604262,1.004984 0.620575,1.046817 1.292736,2.062263 1.984693,3.06333 1.745428,2.525141 3.654444,4.997372 6.12666,6.816988 1.916608,1.410674 4.112268,2.385284 6.169807,3.581077 0.667066,0.387683 1.321627,0.799781 2.017597,1.132801 0.69597,0.33302 1.440677,0.587168 2.210661,0.636164 0.972949,0.06191 1.98035,-0.225659 2.718167,-0.86291 0.802304,-0.692949 1.229247,-1.728177 1.466947,-2.761312 0.240187,-1.043944 0.315063,-2.126163 0.215727,-3.192766 -0.156343,-1.678716 -0.73577,-3.284687 -1.294365,-4.875442 -0.868505,-2.47331 -1.699092,-4.962709 -2.718166,-7.37788 -0.372519,-0.882857 -0.790408,-1.783486 -1.510093,-2.416148 -0.466721,-0.410286 -1.034263,-0.68391 -1.573956,-0.991958 -0.539693,-0.308049 -1.073213,-0.670385 -1.4057,-1.195375 -0.03816,-0.06026 -0.07379,-0.123167 -0.0928,-0.191911 -0.019,-0.06874 -0.0202,-0.14447 0.0091,-0.209485 0.0208,-0.04611 0.0562,-0.08498 0.09837,-0.112926 0.04217,-0.02794 0.0909,-0.04522 0.140792,-0.05357 0.09978,-0.0167 0.202015,0.0017 0.300157,0.02628 0.168824,0.04225 0.332527,0.102642 0.499771,0.150767 0.167244,0.04812 0.340322,0.08415 0.514149,0.07575 0.187519,-0.0091 0.36909,-0.06956 0.540612,-0.145886 0.171521,-0.07633 0.335423,-0.168815 0.506149,-0.246907 0.97321,-0.445158 2.089768,-0.395264 3.159399,-0.360721 4.793762,0.154812 9.605843,-0.175126 14.324305,-1.035492 1.033428,-0.188436 2.069101,-0.404254 3.042284,-0.799724 1.79527,-0.72954 3.293303,-2.034396 4.659713,-3.408495 1.662848,-1.672205 3.215018,-3.50546 5.220606,-4.746004 1.690838,-1.045857 3.639869,-1.623427 5.608914,-1.898402 3.308374,-0.462011 6.698154,-0.09294 9.923464,0.776619 2.37391,0.640018 4.6924,1.558988 6.7307,2.933894 0.9346,0.630417 1.82198,1.371805 2.41615,2.329856 0.16079,0.259268 0.30029,0.536573 0.36243,0.835259 0.0621,0.298687 0.0415,0.62218 -0.10356,0.890561 -0.15005,0.277581 -0.42121,0.475047 -0.71472,0.59086 -0.29352,0.115813 -0.61054,0.157527 -0.92481,0.185759 -1.66716,0.149766 -3.34364,-0.05362 -5.00488,-0.258873 -2.26986,-0.280452 -4.53967,-0.565039 -6.81699,-0.776619 -1.69453,-0.157435 -3.41148,-0.273683 -5.091165,0 -0.336689,0.05486 -0.674542,0.126483 -0.982885,0.272404 -0.308344,0.145922 -0.587854,0.372957 -0.742935,0.676797 -0.09458,0.185306 -0.140075,0.403061 -0.08629,0.604037 0.0498,0.186086 0.18087,0.343094 0.338232,0.454204 0.157362,0.111109 0.340267,0.180441 0.524678,0.236124 0.8349,0.252098 1.72256,0.243327 2.588725,0.345164 1.11001,0.130507 2.18893,0.443816 3.27906,0.690328 1.82703,0.413148 3.69177,0.639686 5.52263,1.035492 1.49585,0.323381 2.96695,0.759491 4.40084,1.294365 1.1252,0.419726 2.24055,0.907715 3.19276,1.639529 0.85361,0.656034 1.5662,1.510532 1.9847,2.502439 0.0715,0.169416 0.13584,0.345129 0.24808,0.49078 0.12942,0.167951 0.31321,0.283993 0.494,0.394779 0.4131,0.253147 0.83153,0.497568 1.24261,0.75397 1.47011,0.916936 2.84024,1.983174 4.22826,3.020185 1.32877,0.99275 2.68065,1.963963 3.88309,3.106475 1.50139,1.426565 2.74795,3.100044 3.8831,4.832296 1.02509,1.564302 1.96543,3.183166 2.8476,4.832296 0.44339,0.828874 0.87583,1.675052 1.10307,2.587187 0.22724,0.912135 0.23507,1.907077 -0.15387,2.762854 -0.28206,0.620609 -0.75264,1.13229 -1.20807,1.639529 -1.27001,1.414465 -2.48104,2.882036 -3.62422,4.400841 -0.8263,1.097805 -1.62009,2.227214 -2.24357,3.45164 -0.52622,1.033427 -0.92942,2.135427 -1.12178,3.279057 -0.22,1.30797 -0.16174,2.64519 -0.0863,3.96939 0.0772,1.35541 0.18178,2.74902 0.77661,3.96938 0.10168,0.20861 0.21707,0.41053 0.34517,0.60404 0.11985,-0.39538 0.29463,-0.77406 0.51774,-1.12178 0.39805,-0.62036 0.94574,-1.13583 1.55324,-1.55324 0.77516,-0.53261 1.64443,-0.90917 2.50244,-1.29437 0.78334,-0.35168 1.56697,-0.71598 2.2705,-1.20827 0.70353,-0.49229 1.32912,-1.12323 1.69889,-1.8982 0.13943,-0.29223 0.24253,-0.60415 0.42287,-0.87306 0.0902,-0.13446 0.19991,-0.25745 0.33295,-0.34971 0.13304,-0.0923 0.29044,-0.15273 0.45225,-0.15789 0.16517,-0.005 0.32857,0.047 0.4727,0.12781 0.14413,0.0808 0.27074,0.18947 0.39021,0.30365 0.48765,0.46608 0.86791,1.03058 1.29437,1.55323 0.94879,1.16278 2.13642,2.12479 3.45164,2.84761 1.15025,0.63216 2.39382,1.0826 3.53793,1.72582 1.43385,0.80612 2.6926,1.90761 3.74282,3.17363 0.24643,0.29706 0.49141,0.61157 0.8306,0.79575 0.079,0.0429 0.16286,0.0783 0.25102,0.0961 0.0881,0.0178 0.18099,0.0174 0.26672,-0.01 0.0887,-0.0281 0.1673,-0.0843 0.22823,-0.15461 0.0609,-0.0703 0.10473,-0.15448 0.13443,-0.24267 0.0594,-0.17638 0.0631,-0.36589 0.0688,-0.55192 0.0257,-0.83442 0.10421,-1.66782 0.0863,-2.50244 -0.0205,-0.95704 -0.16777,-1.90692 -0.34516,-2.8476 -0.25736,-1.36478 -0.57883,-2.71715 -0.9492,-4.05568 -0.44255,-1.59939 -0.95864,-3.188207 -1.72582,-4.659709 -0.89834,-1.723087 -2.12295,-3.251854 -3.36535,-4.746005 -1.49991,-1.803841 -3.08734,-3.670366 -3.62422,-5.954078 -0.13976,-0.594489 -0.20405,-1.203881 -0.25888,-1.812111 -0.18919,-2.098488 -0.26978,-4.206886 -0.51774,-6.299243 -0.42725,-3.605295 -1.35178,-7.146714 -2.67502,-10.527501 -1.41088,-3.604695 -3.27548,-7.030395 -5.52263,-10.182338 -3.18642,-4.469408 -7.12415,-8.368179 -11.39041,-11.821866 -6.14722,-4.976398 -12.99639,-9.05711 -20.19209,-12.339612 -3.76582,-1.717875 -7.629896,-3.220332 -11.567044,-4.497579 z"
         style="display:inline;opacity:1;fill:#131313;fill-opacity:1;fill-rule:evenodd;stroke:#000000;stroke-width:1;stroke-miterlimit:4;stroke-dasharray:none;stroke-opacity:1;paint-order:stroke fill markers" /><path
         d="m 18.379982,57.557612 c 1.68326,0.292136 3.384683,0.479581 5.091169,0.560892 0.78886,0.03759 1.582005,0.05237 2.365994,-0.04289 0.783988,-0.09526 1.561961,-0.303895 2.250574,-0.69058 0.652713,-0.366526 1.208646,-0.882592 1.72582,-1.423801 0.661147,-0.691873 1.274789,-1.437313 2.027838,-2.027838 0.437571,-0.343134 0.91696,-0.6296 1.359374,-0.966468 0.442413,-0.336869 0.855022,-0.734718 1.099919,-1.233953 0.114754,-0.233931 0.191298,-0.492734 0.17512,-0.752793 -0.0081,-0.130029 -0.03961,-0.259142 -0.09777,-0.375719 -0.05816,-0.116577 -0.143372,-0.220337 -0.249933,-0.295289 -0.169556,-0.119261 -0.383683,-0.160099 -0.590975,-0.158491 -0.207291,0.0016 -0.41196,0.04235 -0.617098,0.0722 -0.698978,0.101707 -1.409714,0.07735 -2.11413,0.129436 -1.424471,0.105329 -2.808983,0.522304 -4.141968,1.035492 -1.496668,0.576204 -2.946292,1.27753 -4.314549,2.11413 -1.121217,0.685551 -2.201108,1.474712 -3.020185,2.502438 -0.379148,0.475731 -0.698813,0.99882 -0.949201,1.553238 z"
         style="display:inline;opacity:1;fill:#f8f8f8;fill-opacity:1;fill-rule:evenodd;stroke:#b0b0b0;stroke-width:0.5;stroke-miterlimit:4;stroke-dasharray:none;stroke-opacity:1;paint-order:stroke fill markers" /><path
         d="m 17.754372,59.477587 c 0.24514,0.180147 0.525083,0.312751 0.819765,0.388309 0.259885,0.06664 0.532645,0.08892 0.798018,0.04945 0.265372,-0.03947 0.523103,-0.14203 0.733647,-0.308319 0.182076,-0.143805 0.326097,-0.332603 0.431455,-0.539318 0.03257,-0.0639 0.06187,-0.130494 0.0738,-0.201221 0.01193,-0.07073 0.0052,-0.146554 -0.03066,-0.208661 -0.03164,-0.05477 -0.08395,-0.0955 -0.141297,-0.122172 -0.05735,-0.02668 -0.119856,-0.04031 -0.182294,-0.05041 -0.410304,-0.06637 -0.830687,0.01288 -1.229647,0.129436 -0.288777,0.08436 -0.57592,0.190529 -0.819764,0.366737 -0.182803,0.132099 -0.338058,0.30214 -0.453028,0.496173 z"
         style="display:inline;opacity:1;fill:#f8f8f8;fill-opacity:1;fill-rule:evenodd;stroke:#b0b0b0;stroke-width:0.5;stroke-miterlimit:4;stroke-dasharray:none;stroke-opacity:1;paint-order:stroke fill markers" /><path
         d="m 2.6750208,67.254563 c 0.036614,-0.06398 0.1019991,-0.107498 0.1714414,-0.13223 0.069442,-0.02473 0.1435544,-0.03267 0.2168681,-0.04035 2.3897276,-0.250363 4.8056576,-0.418316 7.1190067,-1.067851 1.729766,-0.485678 3.373078,-1.232894 5.004878,-1.984693 2.446374,-1.127088 4.928537,-2.284549 7.593608,-2.675021 1.376925,-0.20174 2.798758,-0.191302 4.141967,0.172582 0.887566,0.240447 1.726303,0.630127 2.58873,0.949201 1.775649,0.656941 3.649489,1.013679 5.436333,1.639529 0.844,0.295615 1.667902,0.651036 2.527575,0.897385 0.859672,0.246349 1.769533,0.381574 2.649885,0.224398 0.280135,-0.05002 0.556368,-0.129375 0.840511,-0.144857 0.142072,-0.0077 0.285865,8.06e-4 0.42356,0.03665 0.137694,0.03584 0.269336,0.09973 0.375458,0.194502 0.141832,0.126666 0.23188,0.302122 0.291901,0.48256 0.06002,0.180438 0.09289,0.368586 0.139553,0.552932 0.189209,0.747541 0.599639,1.416247 0.927628,2.11413 0.181019,0.385165 0.337832,0.781704 0.469208,1.186501 l 0.114144,0.341677 c -3.054442,0.235711 -6.102766,0.550701 -9.140867,0.944548 -2.152796,0.279079 -4.302543,0.597963 -6.468105,0.748805 -2.485209,0.173107 -4.979677,0.124129 -7.470875,0.136838 -2.749463,0.01403 -5.522699,0.101395 -8.224176,-0.410236 C 9.8949989,70.946519 7.5157065,69.967592 5.1254236,69.071185 4.702158,68.912451 4.2766788,68.755565 3.8757779,68.546691 3.4748769,68.337816 3.0967156,68.074033 2.8044574,67.729163 2.7478406,67.662354 2.6937635,67.591205 2.6639904,67.50885 c -0.014887,-0.04118 -0.023448,-0.08489 -0.022458,-0.128666 9.904e-4,-0.04377 0.01174,-0.08762 0.033488,-0.125621 z"
         style="display:inline;opacity:1;fill:#f8f8f8;fill-opacity:1;fill-rule:evenodd;stroke:#b0b0b0;stroke-width:0.5;stroke-miterlimit:4;stroke-dasharray:none;stroke-opacity:1;paint-order:stroke fill markers" /><path
         d="m 3.9462811,68.64994 c 0.3768463,-0.05515 0.755953,-0.09486 1.1360489,-0.118988 2.4778418,-0.157288 4.94566,0.347609 7.424621,0.486136 4.96529,0.277466 9.881426,-0.91454 14.71666,-2.077126 3.154076,-0.758368 6.310294,-1.507831 9.468602,-2.248378"
         style="display:inline;opacity:1;fill:none;fill-opacity:1;fill-rule:evenodd;stroke:#b0b0b0;stroke-width:0.1;stroke-miterlimit:4;stroke-dasharray:none;stroke-opacity:1;paint-order:stroke fill markers" /><path
         d="m 139.17966,100.49491 c -0.38298,0.15103 -0.72405,0.40684 -0.97627,0.73221 -0.27389,0.35332 -0.43887,0.77739 -0.67119,1.15932 -0.31573,0.51906 -0.75265,0.95459 -1.22034,1.34237 -0.82612,0.68497 -1.75513,1.23333 -2.68474,1.76949 -0.84632,0.48812 -1.69823,0.96958 -2.5017,1.52543 -0.3245,0.22449 -0.64244,0.46237 -0.91525,0.74745 -0.12637,0.13206 -0.24286,0.27402 -0.37899,0.39599 -0.13614,0.12196 -0.29588,0.22482 -0.47525,0.25995 -0.0746,0.0146 -0.15233,0.0171 -0.22641,1e-5 -0.0908,-0.021 -0.1736,-0.0713 -0.23963,-0.13706 -0.066,-0.0658 -0.11585,-0.14671 -0.15204,-0.23262 -0.0724,-0.17181 -0.0907,-0.36063 -0.11412,-0.54559 -0.10616,-0.83949 -0.33187,-1.66089 -0.42712,-2.50169 -0.17346,-1.53125 0.0946,-3.09534 0.65593,-4.53051 0.60989,-1.559304 1.55222,-2.963745 2.51695,-4.332205 1.02564,-1.454856 2.0877,-2.888381 3.28254,-4.207815 0.60924,-0.672775 1.26763,-1.338652 1.59881,-2.18371 0.36614,-0.934242 0.28722,-1.991939 0.0111,-2.956627 -0.11955,-0.417668 -0.27481,-0.825477 -0.47027,-1.213463 -0.0372,-0.07393 -0.076,-0.147334 -0.10524,-0.224787 -0.0292,-0.07745 -0.0487,-0.159687 -0.0458,-0.242411 0.005,-0.144545 0.0808,-0.28185 0.19031,-0.376397 0.10945,-0.09455 0.25014,-0.148524 0.39339,-0.168521 0.2865,-0.04 0.57302,0.04945 0.85237,0.124567 0.49963,0.134348 1.01305,0.226534 1.49275,0.420351 0.51861,0.209538 0.99232,0.540001 1.34237,0.976271 0.33076,0.412239 0.54392,0.906552 0.70842,1.408835 0.16449,0.502283 0.28415,1.01844 0.4509,1.519978 0.3055,0.918847 0.76828,1.782954 1.34238,2.562712 0.80299,1.090656 1.81342,2.00818 2.80678,2.928814 1.00431,0.930778 2.00481,1.879948 2.80677,2.98983 0.88084,1.219045 1.50117,2.602488 2.1356,3.966098 0.4576,0.98356 0.92666,1.96466 1.28135,2.98983 0.34572,0.99925 0.58015,2.03277 0.84776,3.05572 0.19617,0.74989 0.41043,1.49497 0.63516,2.2368 0.0595,0.1963 0.12037,0.3994 0.0961,0.60307 -0.0121,0.10184 -0.0463,0.20226 -0.10758,0.28453 -0.0612,0.0823 -0.15062,0.1453 -0.25114,0.16565 -0.10755,0.0218 -0.22011,-0.006 -0.31895,-0.0534 -0.0988,-0.0476 -0.18687,-0.11457 -0.27704,-0.1771 -0.46527,-0.32267 -0.99655,-0.53393 -1.50756,-0.77778 -1.02394,-0.48862 -1.97577,-1.11355 -2.96085,-1.67643 -0.72728,-0.41557 -1.47342,-0.79769 -2.19661,-1.22034 -0.94392,-0.55164 -1.85348,-1.17664 -2.62373,-1.95254 -0.80638,-0.81228 -1.44397,-1.77277 -2.1356,-2.68475 -0.46278,-0.61022 -0.9515,-1.20076 -1.4644,-1.76949 z"
         style="display:inline;opacity:1;fill:#ffffff;fill-opacity:1;fill-rule:evenodd;stroke:#b0b0b0;stroke-width:0.5;stroke-miterlimit:4;stroke-dasharray:none;stroke-opacity:1;paint-order:stroke fill markers" /><path
         d="m 36.349798,64.777458 c -5.960246,1.309968 -11.386561,2.934923 -17.347326,3.922914 -2.441121,0.32433 -4.932722,0.522722 -7.385989,0.275294 -0.338551,-0.107575 -0.680182,-0.03101 -1.103646,-0.12585 -0.33994,5.48e-4 -0.475097,-0.03138 -0.9558718,-0.112039 -0.531236,-0.0127 -1.085464,-0.08779 -1.6574498,-0.133712 -0.6646423,-0.05337 -1.3517246,-0.07811 -2.0304861,-0.08844 -0.5988611,-0.0091 -1.2341803,0.09597 -1.7780213,0.121992 -0.1264187,0.171895 0.7231525,0.362721 0.8314439,0.461206 3.7039059,1.503576 7.6507101,2.832065 11.6841171,2.892567 4.168534,0.0646 8.373627,0.102202 12.533399,-0.226833 4.34015,-0.449044 8.650088,-1.067519 12.983097,-1.626036 0.495388,-0.08583 1.2646,0.06571 1.709052,-0.102104 -0.287969,-1.238067 -1.403702,-2.273438 -1.621959,-3.547968 -0.123893,-0.496462 -0.272139,-1.422486 -0.80901,-1.487441 -1.247293,0.175968 -2.751057,0.396359 -3.955248,-0.01264 -0.248914,-0.04902 -0.500884,-0.28285 -0.753687,-0.296784 z"
         style="display:inline;opacity:1;fill:#b0b0b0;fill-opacity:1;fill-rule:evenodd;stroke:none;stroke-width:0.00883884;stroke-miterlimit:4;stroke-dasharray:none;stroke-opacity:1;paint-order:stroke fill markers" /><path
         d="m 37.58644,64.433897 c 0.531648,0.464017 1.24796,0.71025 1.952542,0.671186 0.374821,-0.02078 0.741425,-0.118271 1.115153,-0.153623 0.186865,-0.01768 0.376252,-0.01966 0.561388,0.01125 0.185135,0.03091 0.366363,0.09567 0.520069,0.203397 0.270669,0.189703 0.436424,0.497217 0.540357,0.81098 0.103933,0.313763 0.155456,0.642662 0.252864,0.958511 0.242652,0.786808 0.755964,1.455664 1.220338,2.135594 0.997784,1.460942 1.803802,3.04204 2.684746,4.576271 1.025802,1.786512 2.165136,3.525194 3.6,5.003389 2.235951,2.303474 5.093228,3.882669 7.871186,5.491526 1.62579,0.941578 3.313338,1.928809 5.186441,2.074576 0.90582,0.07049 1.850234,-0.07251 2.623729,-0.549153 0.605257,-0.372967 1.083394,-0.939316 1.382009,-1.584505 0.298615,-0.645189 0.420896,-1.366355 0.387482,-2.076512 -0.0058,-0.12412 -0.01676,-0.249995 -0.06102,-0.366101 -0.051,-0.133771 -0.145497,-0.249398 -0.262188,-0.332335 -0.116692,-0.08294 -0.25487,-0.133768 -0.396606,-0.153927 -0.283471,-0.04032 -0.573096,0.0408 -0.827619,0.171945 -0.254523,0.131147 -0.480307,0.310598 -0.709173,0.482649 -0.228867,0.17205 -0.465788,0.339574 -0.733227,0.441837 -0.395023,0.151049 -0.835853,0.149941 -1.249884,0.0637 -0.414031,-0.08624 -0.806317,-0.253633 -1.190794,-0.429804 -2.365494,-1.083895 -4.54868,-2.535432 -6.589831,-4.149153 -1.663315,-1.315006 -3.249631,-2.753045 -4.515254,-4.454237 -1.575352,-2.117516 -2.611845,-4.584887 -3.477966,-7.077966 -0.115096,-0.331298 -0.228376,-0.667845 -0.255499,-1.017516 -0.02712,-0.349671 0.04032,-0.719086 0.255499,-0.996043 0.149758,-0.192758 0.36373,-0.330573 0.594841,-0.409127 0.231112,-0.07855 0.478973,-0.100066 0.722654,-0.08583 0.487361,0.02848 0.954123,0.195632 1.428268,0.311904 1.804206,0.442434 3.701684,0.146244 5.552542,0.305085 0.85149,0.07308 1.691623,0.242526 2.539642,0.348539 0.848019,0.106014 1.716009,0.147573 2.5512,-0.03362 0.08262,-0.01792 0.165868,-0.03841 0.240099,-0.07887 0.07423,-0.04046 0.139504,-0.103449 0.166085,-0.183701 0.01375,-0.04151 0.0167,-0.0863 0.01052,-0.129583 -0.0062,-0.04328 -0.02134,-0.08508 -0.04258,-0.123296 -0.04248,-0.07644 -0.108267,-0.137576 -0.17942,-0.188413 -0.07115,-0.05084 -0.14835,-0.09251 -0.222384,-0.13905 -0.07403,-0.04654 -0.145851,-0.09882 -0.20116,-0.166558 -0.05465,-0.06693 -0.0917,-0.147721 -0.109312,-0.232314 -0.01761,-0.08459 -0.01599,-0.172861 0.0022,-0.257339 0.03632,-0.168956 0.138107,-0.319734 0.2689,-0.432687 0.130794,-0.112952 0.289409,-0.190136 0.453703,-0.243733 0.164294,-0.0536 0.33499,-0.08458 0.50537,-0.113487 2.108281,-0.357763 4.253423,-0.421919 6.388272,-0.54545 1.900114,-0.109948 3.797446,-0.267503 5.689908,-0.470265 2.348146,-0.251585 4.702241,-0.575691 6.955932,-1.281356 1.15789,-0.362553 2.293644,-0.829592 3.294915,-1.514874 1.469251,-1.005573 2.597958,-2.443728 4.050215,-3.473692 0.13428,-0.09523 0.272371,-0.187884 0.384542,-0.308377 0.11217,-0.120492 0.197829,-0.274095 0.202531,-0.43865 0.0038,-0.1336 -0.04691,-0.266028 -0.13008,-0.37065 -0.08317,-0.104622 -0.197251,-0.182378 -0.320929,-0.233047 -0.247357,-0.101338 -0.524078,-0.09583 -0.790877,-0.07931 -2.087659,0.129274 -4.09073,0.830284 -6.080148,1.476231 -2.381208,0.773158 -4.784881,1.475954 -7.2,2.135593 -2.522778,0.689044 -5.05999,1.331462 -7.627118,1.830508 -4.001471,0.77788 -8.068294,1.205427 -12.142373,1.342373 -2.257981,0.0759 -4.521187,0.06266 -6.772881,-0.122034 -1.208132,-0.0991 -2.464557,-0.241416 -3.6,0.183051 -0.855342,0.319756 -1.562086,0.93375 -2.257627,1.525424 -0.766973,0.652439 -1.551442,1.297069 -2.440678,1.769491 -0.55857,0.29675 -1.15463,0.522842 -1.769491,0.671187 z"
         style="display:inline;opacity:1;fill:#080808;fill-opacity:1;fill-rule:evenodd;stroke:#080808;stroke-width:0.5;stroke-miterlimit:4;stroke-dasharray:none;stroke-opacity:1;paint-order:stroke fill markers" /><path
         d="m 2.8067796,63.823727 c 1.3402086,-1.14153 2.6825847,-2.280516 4.0271185,-3.416949 1.7226952,-1.456064 3.4498569,-2.908677 5.2474579,-4.271186 3.558392,-2.697116 7.439638,-5.059024 11.715254,-6.345763 2.771259,-0.834005 5.660198,-1.202645 8.542372,-1.464407 3.414902,-0.310145 6.842926,-0.475003 10.250847,-0.854237 4.935306,-0.549202 9.810612,-1.546078 14.644068,-2.684746 5.332048,-1.256127 10.651676,-2.691274 16.108474,-3.172881 6.176879,-0.545159 12.389113,0.143641 18.549152,0.854237 5.685868,0.655898 11.417927,1.341728 16.840677,3.172882 4.35357,1.470114 8.43503,3.656352 12.32542,6.101694 4.27681,2.688233 8.37185,5.721224 11.83729,9.39661 3.43465,3.642737 6.22616,7.90854 8.05424,12.569492 0.70053,1.786097 1.25942,3.626254 1.70847,5.491525 0.54973,2.283477 0.93028,4.709694 0.24407,6.955932 -0.0376,0.123035 -0.0783,0.245121 -0.12203,0.366102"
         style="display:inline;opacity:1;fill:none;fill-opacity:1;fill-rule:evenodd;stroke:#131313;stroke-width:0.5;stroke-miterlimit:4;stroke-dasharray:none;stroke-opacity:1;paint-order:stroke fill markers" /><path
         d="m 11.649284,49.273677 c 3.933286,-1.834782 7.903759,-3.589846 11.908158,-5.263751 4.687358,-1.959393 9.431132,-3.810929 14.324305,-5.177459 4.783632,-1.335939 9.684473,-2.201309 14.583178,-3.020185 6.067036,-1.014177 12.165829,-1.962261 18.314734,-2.130927 7.532896,-0.206629 15.056664,0.760248 22.454237,2.19661 5.888226,1.143298 11.736384,2.590668 17.328814,4.759322 5.41829,2.101124 10.57536,4.87485 15.31525,8.237288"
         style="display:inline;opacity:1;fill:none;fill-opacity:1;fill-rule:evenodd;stroke:#131313;stroke-width:0.5;stroke-miterlimit:4;stroke-dasharray:none;stroke-opacity:1;paint-order:stroke fill markers" /><path
         d="m 48.933999,30.89961 c 0.0035,-2e-6 0.007,-3e-6 0.01057,-4e-6 0.322828,-4.9e-5 0.645613,0.0066 0.968409,0.0111 1.419717,0.01986 2.839674,-0.0013 4.259273,-0.02829 3.568765,-0.06791 7.136702,-0.173002 10.704793,-0.270067 2.631367,-0.07158 5.263597,-0.138836 7.890611,-0.306218 0.714518,-0.04553 1.446299,-0.102827 2.097272,-0.40089 0.04858,-0.02225 0.09681,-0.04592 0.140545,-0.07662 0.04373,-0.0307 0.08306,-0.06886 0.109455,-0.115321 0.03924,-0.06909 0.04733,-0.153722 0.02887,-0.231004 -0.01846,-0.07728 -0.06217,-0.147273 -0.11845,-0.203361 -0.11256,-0.112177 -0.268911,-0.167276 -0.421906,-0.210242 -0.888684,-0.249573 -1.829814,-0.201338 -2.748352,-0.292624 -0.459269,-0.04564 -0.918366,-0.127539 -1.348155,-0.295746 -0.429788,-0.168206 -0.830851,-0.426748 -1.122085,-0.78479 -0.349128,-0.429218 -0.523631,-0.981043 -0.57053,-1.532332 -0.0469,-0.551288 0.02636,-1.105895 0.128588,-1.649649 0.522577,-2.779624 1.795551,-5.364813 3.270369,-7.778174 3.448268,-5.642674 8.086832,-10.5540936 13.523417,-14.3189124"
         style="display:inline;opacity:1;fill:none;fill-opacity:1;fill-rule:evenodd;stroke:#2a2a2a;stroke-width:0.5;stroke-miterlimit:4;stroke-dasharray:none;stroke-opacity:1;paint-order:stroke fill markers" /><path
         d="m 112.2532,58.277901 c 0.35152,0.180808 0.7051,0.3576 1.06066,0.53033 2.20659,1.071958 4.48608,1.986002 6.71752,3.005204 4.41126,2.014822 8.66491,4.463861 12.28598,7.689786 2.24876,2.003366 4.25419,4.31755 5.65685,6.98268 1.80913,3.437436 2.55379,7.319154 3.27037,11.136932 0.0885,0.471387 0.17686,0.942792 0.26516,1.414213"
         style="display:inline;opacity:1;fill:none;fill-opacity:1;fill-rule:evenodd;stroke:#131313;stroke-width:0.5;stroke-miterlimit:4;stroke-dasharray:none;stroke-opacity:1;paint-order:stroke fill markers" /><path
         d="m 75.289548,10.195389 c -2.407772,2.991512 -4.31552,6.336235 -6.348288,9.58291 -1.356477,2.171629 -2.668972,4.372129 -4.080458,6.508577 -0.827573,1.211336 -1.955939,2.311848 -3.415478,2.684174 -1.576334,0.41777 -3.224545,0.339904 -4.833515,0.532097 -2.471288,0.247488 -4.934051,0.627234 -7.350982,1.201702 -0.110053,0.0075 -0.250329,0.106623 -0.04006,0.0953 4.42828,0.09622 8.853985,-0.173117 13.277004,-0.354523 3.499603,-0.172001 7.006572,-0.185427 10.502534,-0.428002 0.634279,-0.0805 1.342178,-0.07143 1.882172,-0.454135 7.49e-4,-0.182776 -0.302464,-0.209554 -0.436504,-0.264216 -1.436969,-0.327903 -3.006154,-0.05439 -4.361844,-0.72368 -0.927284,-0.481492 -1.528988,-1.484084 -1.533331,-2.527613 -0.03103,-1.519171 0.442975,-2.994018 0.930495,-4.415015 1.216892,-3.198459 3.078896,-6.108422 5.106518,-8.848314 0.799643,-1.092405 1.70177,-2.121435 2.561603,-3.1539431 -0.463655,-0.036587 -0.930284,-0.014549 -1.395138,-0.020889 -0.15491,0.1951909 -0.30982,0.3903821 -0.46473,0.5855731 z"
         style="display:inline;opacity:1;fill:none;fill-opacity:1;fill-rule:evenodd;stroke:#b0b0b0;stroke-width:0.00441942;stroke-miterlimit:4;stroke-dasharray:none;stroke-opacity:1;paint-order:stroke fill markers" /><path
         d="m 85.555035,2.0747337 c -2.737407,0.3459255 -4.835144,2.3378534 -6.71646,4.1881338 -0.996382,1.0552291 -2.109429,2.0510026 -2.912173,3.2591024 0.381455,0.090624 1.170353,0.1622679 1.515517,0.2528507 0.178337,-0.4286838 0.505619,-0.7479801 0.812787,-1.1281447 2.262356,-2.3591017 4.63195,-4.4959339 7.324498,-6.3508946 0.109943,0.212948 0.6678,0.7135988 0.502754,-0.049983 -0.03688,-0.2298555 -0.324898,-0.178892 -0.526923,-0.1710646 z"
         style="display:inline;opacity:1;fill:#2a2a2a;fill-opacity:1;fill-rule:evenodd;stroke:none;stroke-width:0.00883884;stroke-miterlimit:4;stroke-dasharray:none;stroke-opacity:1;paint-order:stroke fill markers" /><path
         d="m 50.251132,30.703521 c -0.01833,0.0012 -0.0327,0.0073 -0.05001,0.0105 -0.0074,0.0013 -0.01508,0.0018 -0.02223,0.0035 -0.0078,0.0018 -0.01447,0.0052 -0.02223,0.007 -0.0071,0.0017 -0.01498,0.002 -0.02223,0.0035 -0.01892,0.0039 -0.03645,0.01038 -0.05555,0.014 -0.0091,0.0017 -0.01873,0.0018 -0.02778,0.0035 -0.0191,0.0036 -0.036,0.01154 -0.05555,0.014 -0.0091,0.0012 -0.01857,-6.45e-4 -0.02778,0 -0.0075,5.31e-4 -0.01474,0.0026 -0.02223,0.0035 -0.01109,0.0014 -0.02224,0.0022 -0.03334,0.0035 -0.01857,0.0022 -0.03712,0.0044 -0.05555,0.007 -0.0149,0.0021 -0.02933,0.0056 -0.04445,0.007 -0.0055,4.94e-4 -0.01124,-8.5e-4 -0.01667,0 -0.0026,3.99e-4 -0.0031,0.003 -0.0055,0.0035 -0.006,0.0013 -0.02249,-0.0017 -0.02778,0 -0.0023,7.37e-4 -0.0033,0.0028 -0.0055,0.0035 -0.0017,5.23e-4 -0.0037,0 -0.0055,0 -0.0055,0 -0.01124,-8.48e-4 -0.01667,0 -0.0026,4.01e-4 -0.0033,0.0028 -0.0055,0.0035 -0.0033,0.0011 -0.0075,-7.38e-4 -0.01109,0 -0.004,8.25e-4 -0.0071,0.0029 -0.01109,0.0035 -0.009,0.0014 -0.01862,-8.25e-4 -0.02778,0 -0.0075,6.8e-4 -0.01473,0.0026 -0.02223,0.0035 -0.01109,0.0014 -0.02224,0.0022 -0.03334,0.0035 -0.0092,0.0011 -0.01839,0.0029 -0.02778,0.0035 -0.0092,5.81e-4 -0.01856,-5.8e-4 -0.02778,0 -0.0094,5.92e-4 -0.0184,0.0028 -0.02778,0.0035 -0.0158,0.0013 -0.03893,0 -0.05555,0 -0.0075,0 -0.03923,-0.0011 -0.04445,0 -0.0024,5.21e-4 -0.0031,0.003 -0.0055,0.0035 -0.0036,7.37e-4 -0.0075,-5.66e-4 -0.01109,0 -0.004,6.32e-4 -0.0071,0.0027 -0.01109,0.0035 -0.0082,0.0017 -0.01941,-0.0013 -0.02778,0 -0.0286,0.0045 0.0101,0.0036 -0.02778,0.007 -0.01466,0.0013 -0.02963,0 -0.04445,0 -0.0463,0 -0.09259,0 -0.1389,0 -0.01667,0 -0.03334,0 -0.05001,0 -0.0055,0 -0.01124,8.48e-4 -0.01667,0 -0.0057,-8.95e-4 -0.01095,-0.0028 -0.01667,-0.0035 -0.0037,-4.57e-4 -0.0075,7.38e-4 -0.01109,0 -0.0024,-5.22e-4 -0.0033,-0.0028 -0.0055,-0.0035 -0.0017,-5.21e-4 -0.0038,5.23e-4 -0.0055,0 -0.02313,-0.0073 0.006,2.42e-4 -0.0055,-0.007 -0.0013,-8.26e-4 -0.0043,8.24e-4 -0.0055,0 -0.0013,-8.26e-4 0.0013,-0.0027 0,-0.0035 -0.0013,-8.24e-4 -0.0043,8.25e-4 -0.0055,0 -4e-6,-3e-6 9e-6,-0.01048 0,-0.0105 -8.28e-4,-0.0015 -0.0044,-0.0021 -0.0055,-0.0035 -8.28e-4,-0.0011 0,-0.0023 0,-0.0035 0,-0.0023 -0.0012,-0.0047 0,-0.007 0.0018,-0.0034 0.0138,-0.0057 0.01667,-0.007 0.0065,-0.0028 0.01038,-0.0075 0.01667,-0.0105 0.0028,-0.0077 0.01138,-0.0019 0.01667,-0.0035 0.0047,-0.0014 0.0061,-0.0059 0.01109,-0.007 0.0036,-7.38e-4 0.0075,7.37e-4 0.01109,0 0.0024,-5.22e-4 0.0033,-0.0028 0.0055,-0.0035 0.0017,-5.22e-4 0.0038,5.22e-4 0.0055,0 0.0023,-7.38e-4 0.0037,-0.0023 0.0055,-0.0035 0.0037,-0.0023 0.0064,-0.0056 0.01109,-0.007 0.0033,-0.0011 0.0075,4.57e-4 0.01109,0 0.0057,-7.24e-4 0.01138,-0.0019 0.01667,-0.0035 0.006,-0.0019 0.01067,-0.0051 0.01667,-0.007 0.02162,-0.0068 0.01394,-2.72e-4 0.03888,-0.007 0.0061,-0.0016 0.01067,-0.0051 0.01667,-0.007 0.0053,-0.0016 0.01138,-0.0019 0.01667,-0.0035 0.006,-0.0019 0.01067,-0.0051 0.01667,-0.007 0.01708,-0.0054 0.03768,-0.0067 0.05555,-0.0105 0.0095,-0.002 0.01811,-0.0055 0.02778,-0.007 0.0054,-8.48e-4 0.01124,4.95e-4 0.01667,0 0.04864,-0.0044 -0.0067,-0.0026 0.05001,-0.0105 0.0073,-9.86e-4 0.01488,5.78e-4 0.02223,0 0.01515,-0.0012 0.02963,-0.0047 0.04445,-0.007 0.02193,-0.0035 0.04523,-0.006 0.06666,-0.0105 0.004,-8.25e-4 0.0073,-0.0025 0.01109,-0.0035 0.01855,-0.0047 0.03765,-0.0083 0.05555,-0.014 0.0082,-0.0026 0.02513,-0.0092 0.03334,-0.0105 0.0036,-5.66e-4 0.0075,7.38e-4 0.01109,0 0.01553,-0.0032 0.02921,-0.01016 0.04445,-0.014 0.0054,-0.0013 0.01166,-0.0016 0.01667,-0.0035 0.0046,-0.0017 0.007,-0.005 0.01109,-0.007 0.0033,-0.0015 0.0074,-0.0023 0.01109,-0.0035 0.0037,-0.0012 0.0071,-0.0029 0.01109,-0.0035 0.0036,-5.66e-4 0.0075,5.66e-4 0.01109,0 0.004,-6.32e-4 0.0071,-0.003 0.01109,-0.0035 0.0054,-6.86e-4 0.01124,5.76e-4 0.01667,0 0.0058,-6.06e-4 0.01095,-0.0028 0.01667,-0.0035 0.0037,-4.57e-4 0.0074,0 0.01109,0 0.01408,0 0.03671,0.0012 0.05001,0 0.0075,-6.79e-4 0.01466,-0.0028 0.02223,-0.0035 0.0074,-6.6e-4 0.01503,0.0012 0.02223,0 0.0057,-8.95e-4 0.01095,-0.0026 0.01667,-0.0035 0.01109,-0.0018 0,0.0035 0.01667,0 0.0024,-5.23e-4 0.0031,-0.003 0.0055,-0.0035 0.0036,-7.37e-4 0.0075,5.67e-4 0.01109,0 0.004,-6.32e-4 0.0071,-0.0027 0.01109,-0.0035 0.0058,-0.0013 0.02819,0 0.03334,0 0.02223,0 0.04445,0 0.06666,0 0.02963,0 0.05927,0 0.08889,0 0.0018,0 0.0037,0 0.0055,0 0.0018,0 0.0043,-8.25e-4 0.0055,0 0.0013,8.25e-4 -0.0013,0.0027 0,0.0035 0.0013,8.26e-4 0.0043,-8.24e-4 0.0055,0 0.0013,8.26e-4 -8.29e-4,0.0024 0,0.0035 0.0012,0.0014 0.0044,0.0021 0.0055,0.0035 8.28e-4,0.0011 -8.28e-4,0.0024 0,0.0035 0.0012,0.0014 0.0044,0.0021 0.0055,0.0035 8.29e-4,0.0011 -8.28e-4,0.0024 0,0.0035 0.0012,0.0014 0.0047,0.002 0.0055,0.0035 0.0023,0.0044 -0.0014,0.0094 0,0.014 0.0011,0.0036 0.0041,0.0069 0.0055,0.0105 0.0013,0.0034 -0.0013,0.0071 0,0.0105 10e-4,0.0025 0.0043,0.0046 0.0055,0.007 5.86e-4,0.0011 -5.86e-4,0.0024 0,0.0035 0.0013,0.0025 0.0043,0.0046 0.0055,0.007 5.86e-4,0.0011 -8.28e-4,0.0024 0,0.0035 0.0012,0.0014 0.0044,0.0021 0.0055,0.0035 8.27e-4,0.0011 -5.86e-4,0.0024 0,0.0035 0.0013,0.0025 0.0043,0.0046 0.0055,0.007 5.86e-4,0.0011 -8.29e-4,0.0024 0,0.0035 0.0012,0.0014 0.0044,0.0021 0.0055,0.0035 8.28e-4,0.0011 -8.27e-4,0.0024 0,0.0035 0.0012,0.0014 0.0051,0.0019 0.0055,0.0035 0.0016,0.0057 0,0.01167 0,0.0175 z"
         style="display:inline;opacity:1;fill:#2a2a2a;fill-opacity:1;fill-rule:evenodd;stroke:#2a2a2a;stroke-width:0.11288689;stroke-miterlimit:4;stroke-dasharray:none;stroke-opacity:1;paint-order:stroke fill markers" /><path
         d="m 76.099368,9.2276732 c -0.360267,0.3572643 -0.73701,0.7541426 -0.924158,1.1633318 -0.255693,0.285174 -0.482682,0.608097 -0.70185,0.868992 -0.02957,0.144318 -0.291377,0.271557 -0.281359,0.450315 -0.304519,0.166965 -0.347202,0.582269 -0.636747,0.799614 0.0029,0.203661 -0.289838,0.211489 -0.243198,0.419424 -0.219295,0.09341 -0.140251,0.31803 -0.36076,0.416108 -0.01442,0.254615 -0.306627,0.453293 -0.36999,0.677127 -0.22641,0.04793 -0.08212,0.302569 -0.320172,0.352073 0.02071,0.234934 -0.324208,0.278576 -0.293644,0.54077 -0.06888,0.313417 -0.407623,0.362213 -0.416944,0.671244 -0.0301,0.232082 -0.333476,0.367811 -0.360967,0.531426 0.01768,0.148839 -0.232957,0.187658 -0.186898,0.34659 -0.141683,0.0377 -0.03555,0.268234 -0.257147,0.309798 0.01338,0.22581 -0.26487,0.381488 -0.267074,0.591706 -0.258907,0.08943 -0.154214,0.416122 -0.400339,0.565768 -0.05492,0.230139 -0.30192,0.372088 -0.307813,0.582371 -0.251802,0.09135 -0.193453,0.404654 -0.418983,0.562828 -0.08272,0.213112 -0.246552,0.410478 -0.307473,0.601015 -0.233196,0.08499 -0.175167,0.388413 -0.388073,0.535907 0.03619,0.19523 -0.256759,0.216325 -0.217644,0.404068 -0.163176,0.01166 -0.01412,0.276515 -0.246267,0.297716 -0.139777,0.229877 -0.217305,0.589565 -0.466682,0.732685 0.07051,0.224914 -0.255085,0.373225 -0.253086,0.578418 -0.227883,0.03268 -0.103936,0.252579 -0.275786,0.292528 0.09682,0.194572 -0.235301,0.210129 -0.189335,0.412363 -0.146101,0.145968 -0.197774,0.303271 -0.265471,0.435299 -0.2681,0.222473 -0.328569,0.674043 -0.608623,0.851931 0.02329,0.213709 -0.255861,0.368355 -0.252913,0.570303 -0.234287,0.06316 -0.119238,0.308177 -0.34832,0.386247 0.04422,0.16122 -0.188563,0.179033 -0.173786,0.374733 -0.175744,0.0598 -0.140896,0.291285 -0.307747,0.368996 0.01545,0.187383 -0.206174,0.17182 -0.140976,0.351437 -0.242249,0.133408 -0.256935,0.442739 -0.532057,0.559687 -0.405252,0.664312 -1.076514,1.1645 -1.697142,1.613598 -0.165189,-0.02474 -0.253278,0.277683 -0.487418,0.239983 -0.209116,-0.0015 -0.325785,0.259988 -0.585478,0.252555 -0.333232,0.167194 -0.714769,0.04032 -1.002731,0.246728 -1.905426,0.168265 -3.817004,0.285234 -5.715714,0.528393 -0.314015,0.03209 -0.62827,0.08537 -0.933805,0.09828 -0.291423,0.145946 -0.674328,0.05679 -0.990976,0.193389 -0.393359,0.02887 -0.815526,0.142298 -1.177408,0.153452 -0.140103,0.178246 -0.909036,-0.01347 -1.110231,0.139336 -0.362625,0.02418 -0.482003,0.22772 -0.821111,0.267304 -0.287073,0.36626 0.529533,0.251845 0.732357,0.255922 5.776444,0.147197 11.648634,-0.281131 17.493179,-0.418161 1.739372,-0.09434 3.462057,-0.144149 5.193465,-0.281422 0.419986,-0.147038 0.788266,0.03066 1.21216,-0.195536 0.33568,0.02358 0.78559,-0.660237 0.522288,-0.66786 -0.225389,-0.03127 -0.693344,-0.259975 -0.937172,-0.137767 -1.175837,-0.272237 -2.385073,0.05907 -3.527007,-0.352798 -0.08255,-0.09602 -0.2076,-0.0099 -0.248371,-0.157863 -0.184727,0.06402 -0.322808,-0.179428 -0.491955,-0.164326 -0.122552,-0.260012 -0.494025,-0.263987 -0.590914,-0.59318 -0.0279,-0.187688 -0.310745,-0.213355 -0.247256,-0.413015 -0.153316,-0.01984 -0.03568,-0.21147 -0.19568,-0.279727 -0.02069,-0.282172 -0.258797,-0.41888 -0.181388,-0.719247 -0.163292,-0.561062 0.05085,-1.166027 0.03092,-1.739791 0.167974,-0.17397 -0.03609,-0.508971 0.193363,-0.602949 -0.08161,-0.362595 0.133867,-0.806324 0.257384,-1.077326 0.0775,-0.570742 0.385673,-1.115923 0.499951,-1.690618 0.25817,-0.124291 0.05564,-0.478735 0.299723,-0.655742 0.191917,-0.200279 0.132709,-0.585118 0.360162,-0.719944 -0.08857,-0.144295 0.163963,-0.122381 0.07242,-0.284304 0.165881,-0.02299 0.03261,-0.204671 0.191871,-0.245944 -0.08606,-0.144746 0.16441,-0.122295 0.07346,-0.284304 0.165881,-0.02299 0.03261,-0.204671 0.191871,-0.245944 -0.08321,-0.143985 0.159576,-0.124326 0.0776,-0.284304 0.212004,-0.02038 0.06875,-0.369371 0.267045,-0.497447 0.0628,-0.206954 0.347471,-0.301458 0.274119,-0.483979 0.04801,-0.290803 0.387729,-0.374478 0.373603,-0.63742 0.31941,-0.278724 0.347746,-0.780964 0.690501,-1.009866 -0.07466,-0.20091 0.25024,-0.223096 0.215747,-0.41598 0.214094,-0.426154 0.575455,-0.856215 0.838333,-1.195055 -0.05333,-0.164076 0.22629,-0.202315 0.182074,-0.381809 0.236047,-0.09805 0.211864,-0.391719 0.449345,-0.496528 2.36e-4,-0.22226 0.273882,-0.256899 0.261683,-0.462231 0.202967,-0.08571 0.228248,-0.247935 0.313452,-0.400068 0.267121,-0.100127 0.166193,-0.408577 0.441241,-0.523461 0.04736,-0.259202 0.362597,-0.395615 0.445939,-0.644821 0.357437,-0.206509 0.402125,-0.602301 0.762255,-0.81097 0.0652,-0.31412 1.022389,-0.8081748 1.062085,-1.1235331 0.238034,-0.2095856 -0.837746,-0.1433475 -0.945888,-0.1464815 -0.05082,7.05e-5 -0.194712,-0.2014211 -0.245534,-0.1997011 z"
         style="display:inline;opacity:1;fill:#2a2a2a;fill-opacity:1;fill-rule:evenodd;stroke:none;stroke-width:0.00883884;stroke-miterlimit:4;stroke-dasharray:none;stroke-opacity:1;paint-order:stroke fill markers" /><path
         d="m 71.297509,34.028688 c -9.664717,0.258978 -19.205252,2.131456 -28.662195,4.010451 -2.048781,0.420863 -4.065488,0.941815 -6.057791,1.537835 -8.431163,2.522276 -16.425292,6.38892 -24.563705,9.703667 -1.73506,0.279793 -2.3964578,2.369206 -3.3834791,3.601304 -1.8173527,3.202448 -3.7662867,6.508773 -5.2283375,9.800063 6.4365983,-4.867775 12.4043656,-10.898007 20.3778406,-13.196325 8.144302,-2.179835 16.713285,-1.585895 24.950262,-3.28629 11.20381,-1.946579 22.2642,-6.080616 33.80021,-4.947385 9.00095,0.850018 18.161476,1.467264 26.813686,4.271492 6.95164,2.530567 13.33031,6.526899 19.08658,11.135203 4.84045,4.104498 9.14384,8.949053 11.90111,14.709828 0.14936,0.670312 1.03387,0.97868 0.65625,0.06445 C 137.19143,60.323146 129.49232,50.311508 118.92635,44.920892 107.58997,38.707094 94.697946,36.037641 81.971019,34.533805 78.426041,34.172222 74.861336,33.983488 71.297509,34.028688 Z"
         style="display:inline;opacity:1;fill:#2a2a2a;fill-opacity:1;fill-rule:evenodd;stroke:#131313;stroke-width:0.025;stroke-miterlimit:4;stroke-dasharray:none;stroke-opacity:1;paint-order:stroke fill markers" /><path
         d="m 100.43786,57.229626 c -1.141494,0.162381 -3.180235,-0.197536 -3.626956,1.180175 0.193561,1.519309 2.381947,1.003362 3.436526,1.388184 4.97052,1.02346 10.14533,1.623456 14.79443,3.759277 2.66835,1.058914 3.47577,4.187763 6.04021,5.388165 4.06374,2.987023 8.51951,5.800996 11.14778,10.246601 1.23257,1.573388 1.9864,3.52904 3.2583,5.029298 1.69706,0.03554 3.29875,0.568262 4.77588,1.403807 0.65025,-0.205037 -0.24339,-1.443435 -0.16016,-1.94336 -0.92851,-4.280464 -2.83974,-8.374047 -5.7006,-11.672971 -1.04424,-1.204138 -2.215,-2.302402 -3.51068,-3.265236 -5.91159,-4.786634 -13.11642,-7.490106 -19.95669,-10.632593 -3.49032,-0.375511 -6.97935,-0.90141 -10.49804,-0.881347 z"
         style="display:inline;opacity:1;fill:#080808;fill-opacity:1;fill-rule:evenodd;stroke:none;stroke-width:0.025;stroke-miterlimit:4;stroke-dasharray:none;stroke-opacity:1;paint-order:stroke fill markers" /><path
         d="m 136.01835,84.602631 c -1.06545,0.254046 0.0191,1.390005 0.17974,2.016014 0.50483,1.242768 0.14814,2.539653 0.038,3.797937 0.57644,2.056377 0.31318,4.352533 1.30338,6.274882 0.47181,0.6969 1.74583,1.045616 2.00877,-0.03245 0.74905,-2.013703 1.67982,-4.048844 1.90725,-6.195471 -0.57499,-1.876164 -0.824,-4.413831 -2.85708,-5.302265 -0.75758,-0.267471 -1.68708,-0.56654 -2.49009,-0.626672 z"
         style="display:inline;opacity:1;fill:#ebebeb;fill-opacity:1;fill-rule:evenodd;stroke:none;stroke-width:0.01767767;stroke-miterlimit:4;stroke-dasharray:none;stroke-opacity:1;paint-order:stroke fill markers" /></g></g></svg>
